<svg id="Logos" xmlns="http://www.w3.org/2000/svg" width="6784" height="1024">
  <image width="300" height="83" transform="translate(3907.9 252.5) scale(0.75)" href="logo_actel.png"/>
  <image width="275" height="129" transform="translate(3519.84 101) scale(0.75)" href="logo_add-semiconductors.png"/>
  <image width="300" height="80" transform="translate(4145.69 74.75) scale(0.75)" href="logo_ambiq.png"/>
  <image width="279" height="103" transform="translate(3966.8 370.88) scale(0.75)" href="logo_audium.png"/>
  <image width="290" height="71" transform="translate(3052.96 574.5) scale(0.75)" href="logo_cadw.png"/>
  <image width="300" height="96" transform="translate(6377.38 236) scale(0.75)" href="logo_dialog.png"/>
  <image width="195" height="172" transform="translate(5760 288.13) scale(0.75)" href="logo_dtelectronics.png"/>
  <image width="250" height="183" transform="translate(5316.5 774.38) scale(0.75)" href="logo_eda-solutions.png"/>
  <image width="262" height="101" transform="translate(6400 677.25) scale(0.75)" href="logo_en.png"/>
  <image width="213" height="185" transform="translate(4832.25 605.63) scale(0.75)" href="logo_ericsson.png"/>
  <image width="300" height="81" transform="translate(3103 866.25) scale(0.75)" href="logo_eureka.png"/>
  <image width="289" height="181" transform="translate(3204.13 370.5) scale(0.75)" href="logo_kc.png"/>
  <image width="300" height="147" transform="translate(3103 66.13) scale(0.75)" href="logo_logica.png"/>
  <image width="288" height="102" transform="translate(3584 371.25) scale(0.75)" href="logo_luminary.png"/>
  <image width="300" height="82" transform="translate(3366.96 570.38) scale(0.75)" href="logo_meridian.png"/>
  <image width="277" height="152" transform="translate(5053.32 601.13) scale(0.75)" href="logo_mimoon.png"/>
  <image width="100" height="170" transform="translate(3237.5 643.5) scale(0.75)" href="logo_nhm1.png"/>
  <image width="300" height="164" transform="translate(3196.95 210.5) scale(0.75)" href="logo_nhm2.png"/>
  <image width="300" height="72" transform="translate(5572.2 77.75) scale(0.75)" href="logo_optima.png"/>
  <image width="295" height="80" transform="translate(3874.75 780.38) scale(0.75)" href="logo_oxsemi.png"/>
  <image width="300" height="94" transform="translate(4457.4 610.75) scale(0.75)" href="logo_papst.png"/>
  <image width="281" height="129" transform="translate(5338.77 255.88) scale(0.75)" href="logo_parallaxis.png"/>
  <image width="280" height="149" transform="translate(3517.96 754.5) scale(0.75)" href="logo_phyworks.png"/>
  <image width="284" height="64" transform="translate(4263.7 248) scale(0.75)" href="logo_picochip.png"/>
  <image width="300" height="45" transform="translate(4002.05 658.13) scale(0.75)" href="logo_radio-electronics.png"/>
  <image width="284" height="44" transform="translate(3823.38 88.25) scale(0.75)" href="logo_renesas.png"/>
  <image width="293" height="69" transform="translate(4408.17 368.25) scale(0.75)" href="logo_rnecsys.png"/>
  <image width="287" height="149" transform="translate(3556.85 216.13) scale(0.75)" href="logo_senate.png"/>
  <image width="300" height="55" transform="translate(3628.33 654.38) scale(0.75)" href="logo_sony.png"/>
  <image width="300" height="87" transform="translate(4845.45 810.38) scale(0.75)" href="logo_spectris.png"/>
  <image width="300" height="75" transform="translate(4457.4 121.25) scale(0.75)" href="logo_tektronix.png"/>
  <image width="300" height="49" transform="translate(4879.5 420) scale(0.75)" href="logo_varta.png"/>
  <image width="137" height="181" transform="translate(4338.67 707.25) scale(0.75)" href="logo_xicor.png"/>
  <image width="262" height="179" transform="translate(4803.8 149.38) scale(0.75)" href="logo_xp.png"/>
  <image width="241" height="86" transform="translate(5586.3 675) scale(0.75)" href="logo_zetex.png"/>
</svg>
