<svg xmlns="http://www.w3.org/2000/svg" xmlns:xlink="http://www.w3.org/1999/xlink" width="172" height="48" viewBox="0 0 172 48"><defs><path id="a" d="M.13.368h23.767v32.896H.13z"/><path id="c" d="M0 48h171.805V.368H0z"/></defs><g fill="none" fill-rule="evenodd"><path fill="#FFF" d="M20.192 0v19.149L8.465 0H0v31.5h6.922V10.796L19.795 31.5h7.363V0zm55.365 10.5l4.414 13.355L83.747 10.5h6.78L83.52 33h-6.871l-4.914-14.532L66.912 33h-7.007l-7.098-22.5h7.189l3.777 13.31L68.23 10.5z"/><g transform="translate(113.892)"><mask id="b" fill="#fff"><use xlink:href="#a"/></mask><path fill="#FFF" d="M11.923 15.765c-2.675 0-5.124 1.782-5.124 5.62 0 3.747 2.449 5.665 5.124 5.665 2.676 0 5.08-1.873 5.08-5.665 0-3.838-2.404-5.62-5.08-5.62zM.131 32.762V.368h6.758v11.834c.952-1.417 3.447-2.696 6.53-2.696 6.532 0 10.478 5.026 10.478 11.834 0 6.944-4.445 11.924-10.75 11.924-2.993 0-5.306-1.325-6.348-3.06v2.558H.13z" mask="url(#b)"/></g><mask id="d" fill="#fff"><use xlink:href="#c"/></mask><path fill="#FFF" d="M140.192 32.762h6.895V.368h-6.895zm20.411-17.911c3.265 0 4.444 2.102 4.535 3.838h-9.026c.136-1.69 1.588-3.838 4.49-3.838zm4.855 10.147c-.7 1.545-2.064 2.555-4.357 2.555-2.675 0-4.989-1.827-5.124-4.386h15.692c.045-.137.136-1.188.136-2.147 0-7.31-4.309-11.651-11.293-11.651-5.85 0-11.248 4.66-11.248 11.97 0 7.63 5.533 12.108 11.747 12.108 5.194 0 8.62-2.72 10.02-6.167l-5.573-2.282zM41.868 14.851c3.265 0 4.445 2.102 4.535 3.838h-9.025c.136-1.69 1.587-3.838 4.49-3.838zm4.856 10.147c-.7 1.545-2.065 2.555-4.357 2.555-2.676 0-4.99-1.827-5.125-4.386h15.692c.046-.137.136-1.188.136-2.147 0-7.31-4.309-11.651-11.293-11.651-5.85 0-11.248 4.66-11.248 11.97 0 7.63 5.534 12.108 11.747 12.108 5.195 0 8.62-2.72 10.02-6.167l-5.572-2.282zm57.846-1.146c0 3.518-2.086 4.524-4.127 4.524-1.904 0-2.675-1.143-2.675-2.33 0-1.6 1.088-2.285 2.54-2.513l4.263-.686v1.005zM101.306 9.37c-6.621 0-9.615 4.295-9.887 7.539l5.987 1.233c.136-1.69 1.45-3.335 3.854-3.335 2.178 0 3.312 1.142 3.312 2.467 0 .777-.41 1.371-1.633 1.554l-5.306.822c-3.72.548-6.668 2.833-6.668 6.853 0 3.61 2.858 6.9 7.802 6.9 2.992 0 5.17-1.28 6.348-3.199v2.558h6.168v-14.62c0-4.66-2.675-8.772-9.977-8.772zM0 37.582V48h171.806V37.582z" mask="url(#d)"/></g></svg>